<svg width="796" height="856" viewBox="0 0 796 856" fill="none" xmlns="http://www.w3.org/2000/svg">
<g clip-path="url(#clip0_1_203)">
<path d="M762.93 305.037C797 303.751 799.59 360.944 792.98 383.947C789.43 396.299 783.44 406.453 779.41 418.205C766.44 455.952 749.71 497.586 713.07 518.141C682.43 535.17 662.49 535.85 629.12 526.808C633.17 543.62 643.16 563.42 646.84 581.89C651.51 605.36 656.54 629.31 660.56 652.98C665.02 679.23 672.87 707.27 676.69 733.34C680.9 764.03 698.67 818.88 676.72 845.73C648.51 880.22 597.46 816.03 588.32 792.28C575.64 759.3 566.38 732.51 552.98 700.49C550 693.37 544.67 671.3 539.95 667.74C535.97 669.6 533.77 688.05 531.77 694.45C524.4 718.06 517.26 743.23 507.93 766.07C501.01 783 491.17 800.34 484.15 817.54C478.45 831.77 467.74 848.39 452.47 853.59C431.26 861.76 417.1 836.38 412.98 818.19C399.93 760.69 418.66 697.8 434.34 642.56C437.9 630.02 440.12 618.14 443.15 606.04C448.98 582.11 456.98 558.4 460.76 534.03C462.33 523.88 458.22 503.128 471.5 499.529C490.05 507.699 478.73 593.95 476.44 611.25C474.57 626.11 472.32 641.65 469.39 656.32C461.04 698.1 444.93 743 458.15 785.06C463.54 778.54 467.04 770.57 471.41 763.33C490.11 732.3 504.64 700.14 509.63 663.92C511.39 649.65 509.22 625.52 520.96 614.6C544.44 592.76 562.77 611.69 566.14 637.19C569.1 659.68 578.7 685.73 585.33 706.71C590.2 722.16 616.46 783.14 633.62 782.2C637.1 779.13 636.99 776.47 636.61 771.8C633.71 733.81 623.36 695.32 625.48 657.11C628.06 610.62 615.39 569.5 600.79 526.153C600.01 523.817 600.02 517.077 600.9 514.658C606.54 498.261 633.84 505.304 648.44 504.182C689.93 500.994 706.13 480.02 727.46 447.314C737.75 431.546 755.41 413.422 759.92 393.129C761.3 386.933 765.36 376.134 761.93 370.191C749.36 363.934 734.15 400.034 727.57 407.442C711.39 425.661 689.57 441.54 668.63 453.93C662.72 457.423 652.38 458.769 645.66 459.87C620.66 464.457 600.04 457.849 580.21 442.344C575.99 439.044 557.38 422.944 568.85 417.432C577.82 413.125 598.57 425.506 610.24 427.913C645.95 435.281 668.81 421.399 692.9 396.39C709.6 380.267 719.13 369.391 732.07 349.648C740.76 336.396 750.35 313.445 762.93 305.037Z" fill="#F14641"/>
<path d="M28.9841 305.055C30.9561 305.327 32.5471 305.663 34.0801 307.033C39.2981 311.695 43.6001 318.823 47.6951 324.507C60.0921 341.715 72.44 362.146 86.498 377.84C99.249 392.075 123.366 414.608 139.733 424.074C171.194 442.269 217.227 412.879 228.985 416.958C239.87 430.095 201.165 453.81 191.678 458.143C145.53 479.223 85.105 441.961 65.72 399.035C61.896 390.566 49.0621 368.848 38.7491 369.706C36.9811 371.205 35.123 372.562 35.107 375.272C34.987 395.769 47.3851 413.289 56.6681 430.57C60.8271 438.312 64.522 444.101 69.876 450.67C91.749 477.409 117.369 502.115 154.041 503.105C164.619 504.311 187.773 495.492 194.307 506.01C200.284 515.532 196.053 528.482 192.829 538.35C186.263 558.44 178.961 578.24 174.569 598.98C168.772 623.83 172.274 649.93 169.79 674.9C167.498 697.92 163.308 721.17 161.933 744.42C161.35 754.28 158.358 764.98 158.036 774.91C157.86 780.32 157.196 788.11 163.753 788.85C183.678 779.86 223.802 683.9 228.729 659.64C232.239 642.35 228.578 611.38 250.215 605.91C282.989 597.62 286.951 655.61 291.081 675.52C293.815 688.09 297.034 700.56 300.733 712.89C304.942 726.5 329.174 780.53 339.89 786.23L341.323 785.5C344.043 775.74 341.57 763.19 341.311 753.08C340.343 715.35 332.654 680.83 326.321 643.86C321.717 609.65 316.975 574.1 314.337 539.81C313.829 533.207 317.052 498.177 326.943 499.043C330.18 501.531 332.247 505.527 333.557 509.35C337.536 520.964 336.274 534.798 337.69 546.92C338.905 557.31 341.377 567.75 343.616 577.96C346.209 589.79 349.738 601.29 352.673 613.03C356.749 629.33 360.199 645.82 364.746 662C379.54 714.65 390.43 744.27 382.58 800.53C381.25 810.06 380.53 821.12 376.17 829.81C373.191 835.73 362.767 846.73 356.098 848.42C350.345 849.88 342.671 846.6 337.925 843.6C309.089 825.35 264.142 707.66 255.318 671.08C241.864 688.84 237.592 711.11 230.493 732.8C220.03 764.04 202.792 805 181.054 829.53C163.717 849.09 130.809 868.5 115.845 835.51C112.54 828.22 108.614 820.04 109.141 811.98C111.167 787.12 115.64 762.27 120.144 737.61C129.536 686.18 140.153 634.49 150.581 583.26C154.213 565.42 161.729 545.5 166.817 527.73C142.244 535.14 119.139 534.9 95.167 523.733C45.581 500.635 25.4241 446.582 7.20006 398.808C-0.37494 378.951 -2.85697 341.457 7.48503 322.205C13.402 311.192 17.8751 308.366 28.9841 305.055Z" fill="#F14641"/>
<path d="M234.681 219.364C239.619 219.065 244.568 218.975 249.513 219.095C274.566 219.633 296.63 233.252 313.449 251.048C329.018 267.418 337.196 289.455 336.076 312.019C335.245 328.997 319.331 363.525 306.397 376.057C301.143 381.147 289.048 384.677 286.06 376.417C279.648 358.693 300.129 339.167 303.66 321.323C307.056 308.819 308.922 293.271 301.121 281.589C282.259 253.339 248.379 254.548 222.673 269.818C182.876 299.151 179.381 344.666 224.027 372.51C229.728 376.065 243.719 380.415 246.489 385.616L245.511 387.62C212.303 409.674 160.082 368.175 154.647 334.36C150.401 307.935 156.615 276.043 171.663 253.678C189.047 227.841 206.223 224.471 234.681 219.364Z" fill="#F14641"/>
<path d="M544.68 219.416C611.09 214.785 642.88 260.263 642.9 323.098C642.91 361.889 594.78 405.278 555.97 391.088C552.43 389.791 551.1 389.231 549.52 385.841C553.17 378.733 564.74 378.134 571.34 373.945C610.55 349.066 615.33 313.507 585.76 279.421C536.43 234.542 466.27 268.556 497.76 335.243C502.4 342.949 523.56 380.398 503.28 381.471C481.26 382.635 461.16 327.044 460.3 310.975C457.82 264.482 500.68 222.403 544.68 219.416Z" fill="#F14641"/>
<path d="M392.48 112.29C399.61 111.383 406.83 111.442 413.94 112.465C435.42 115.595 470.16 129.829 483.67 148.205C488.25 154.439 496.34 167.878 486.4 172.821C469.59 172.889 447.5 125.216 391.64 133.606L390.24 133.826C367.56 139.333 350.235 152.611 333.467 168.324C328.092 172.885 312.906 190.275 305.207 185.512C289.544 175.822 320.614 149.577 325.722 144.662C346.088 125.064 365.35 116.727 392.48 112.29Z" fill="#F14641"/>
<path d="M478.46 403.19C480.08 403.008 481.72 402.969 483.34 403.073C496.96 403.883 503.61 416.154 490.48 424.681C483.75 429.057 476.48 437.827 470.12 442.194C449.1 456.623 431.33 472.248 422.23 496.827C417.8 508.452 416.44 519.741 414.28 532.5C412.36 536.65 412.26 538.33 407.51 538.51C403.59 535.61 403.45 531.421 402.17 526.935C395.73 504.499 410.39 464.592 422.49 445.471C436.75 422.956 451.65 408.874 478.46 403.19Z" fill="#F14641"/>
<path d="M307.618 403.109C354.305 399.602 374.46 441.931 389.38 480.152C395.04 494.633 398.49 530.389 388.16 543.1C377.46 538.43 378.31 493.087 369.044 478.81C357.884 461.62 344.401 453.078 329.184 439.862C319.902 431.8 285.799 416.585 307.618 403.109Z" fill="#F14641"/>
<path d="M533.05 59.18C543.24 58.743 553.13 61.489 543.63 73.374C537.43 81.127 526.81 88.834 519.54 96.085C510.52 105.075 502.34 115.263 492.67 123.363C478.73 125.992 477.61 108.784 481.54 102.098C489.43 88.655 519.34 63.958 533.05 59.18Z" fill="#F14641"/>
<path d="M330.818 15.3721C352.735 21.1231 376.64 76.3051 365.308 95.1501L364.41 96.686C363.044 96.954 357.941 97.8301 356.984 96.0771C348.451 80.4491 315.459 33.6001 329.662 16.7761L330.818 15.3721Z" fill="#F14641"/>
<path d="M215.398 109.063C237.57 110.208 253.926 118.307 270.574 131.902C273.348 134.168 278.9 135.158 281.379 137.385C287.778 143.134 291.223 149.998 285.897 157.536C265.151 156.976 241.903 141.635 223.872 132.266C216.153 128.255 208.351 119.081 214.464 110.462L215.398 109.063Z" fill="#F14641"/>
<path d="M399.78 0.655029C402.59 1.06603 406.41 1.56602 408.51 3.89502C418.58 15.057 415.53 77.125 407.23 85.877C404.86 85.876 400 86.31 398.71 84.339C389.29 69.944 389.37 11.699 399.78 0.655029Z" fill="#F14641"/>
<path d="M470.59 18.926C489.47 21.471 477.95 37.298 475.06 46.995C469.82 64.591 463.85 82.2751 449.04 94.2961C428.41 92.9021 441.88 73.006 445.99 62.635C450.37 51.597 453.63 40.218 458.91 29.451C462.45 22.232 463.47 21.523 470.59 18.926Z" fill="#F14641"/>
<path d="M262.72 52.8809L263.658 52.9199C277.892 53.4029 318.501 89.4609 322.905 104.015C323.541 106.117 320.08 108.756 319.064 109.681C301.514 111.723 287.209 95.0829 274.56 84.8059C265.609 77.5329 252.639 63.8559 262.72 52.8809Z" fill="#F14641"/>
<path d="M574.14 117.229C582.54 116.202 599.67 118.856 594.52 127.432C589.31 136.093 544.91 155.534 536.23 159.036C517.37 165.178 513.46 148.38 522.15 144.56C535.88 138.518 561 123.052 574.14 117.229Z" fill="#F14641"/>
</g>
<defs>
<clipPath id="clip0_1_203">
<rect width="796" height="856" fill="white"/>
</clipPath>
</defs>
</svg>
