<svg width="2000" height="2000" viewBox="0 0 2000 2000" fill="none" xmlns="http://www.w3.org/2000/svg">
<rect width="2000" height="2000" fill="white"/>
<g clip-path="url(#clip0_1_383)">
<path d="M1364.93 767.037C1399 765.751 1401.59 822.944 1394.98 845.947C1391.43 858.299 1385.44 868.453 1381.41 880.205C1368.44 917.952 1351.71 959.586 1315.07 980.141C1284.43 997.17 1264.49 997.85 1231.12 988.808C1235.17 1005.62 1245.16 1025.42 1248.84 1043.89C1253.51 1067.36 1258.54 1091.31 1262.56 1114.98C1267.02 1141.23 1274.87 1169.27 1278.69 1195.34C1282.9 1226.03 1300.67 1280.88 1278.72 1307.73C1250.51 1342.22 1199.46 1278.03 1190.32 1254.28C1177.64 1221.3 1168.38 1194.51 1154.98 1162.49C1152 1155.37 1146.67 1133.3 1141.95 1129.74C1137.97 1131.6 1135.77 1150.05 1133.77 1156.45C1126.4 1180.06 1119.26 1205.23 1109.93 1228.07C1103.01 1245 1093.17 1262.34 1086.15 1279.54C1080.45 1293.77 1069.74 1310.39 1054.47 1315.59C1033.26 1323.76 1019.1 1298.38 1014.98 1280.19C1001.93 1222.69 1020.66 1159.8 1036.34 1104.56C1039.9 1092.02 1042.12 1080.14 1045.15 1068.04C1050.98 1044.11 1058.98 1020.4 1062.76 996.03C1064.33 985.88 1060.22 965.128 1073.5 961.529C1092.05 969.699 1080.73 1055.95 1078.44 1073.25C1076.57 1088.11 1074.32 1103.65 1071.39 1118.32C1063.04 1160.1 1046.93 1205 1060.15 1247.06C1065.54 1240.54 1069.04 1232.57 1073.41 1225.33C1092.11 1194.3 1106.64 1162.14 1111.63 1125.92C1113.39 1111.65 1111.22 1087.52 1122.96 1076.6C1146.44 1054.76 1164.77 1073.69 1168.14 1099.19C1171.1 1121.68 1180.7 1147.73 1187.33 1168.71C1192.2 1184.16 1218.46 1245.14 1235.62 1244.2C1239.1 1241.13 1238.99 1238.47 1238.61 1233.8C1235.71 1195.81 1225.36 1157.32 1227.48 1119.11C1230.06 1072.62 1217.39 1031.5 1202.79 988.153C1202.01 985.817 1202.02 979.077 1202.9 976.658C1208.54 960.261 1235.84 967.304 1250.44 966.182C1291.93 962.994 1308.13 942.02 1329.46 909.314C1339.75 893.546 1357.41 875.422 1361.92 855.129C1363.3 848.933 1367.36 838.134 1363.93 832.191C1351.36 825.934 1336.15 862.034 1329.57 869.442C1313.39 887.661 1291.57 903.54 1270.63 915.93C1264.72 919.423 1254.38 920.769 1247.66 921.87C1222.66 926.457 1202.04 919.849 1182.21 904.344C1177.99 901.044 1159.38 884.944 1170.85 879.432C1179.82 875.125 1200.57 887.506 1212.24 889.913C1247.95 897.281 1270.81 883.399 1294.9 858.39C1311.6 842.267 1321.13 831.391 1334.07 811.648C1342.76 798.396 1352.35 775.445 1364.93 767.037Z" fill="#F14641"/>
<path d="M630.984 767.055C632.956 767.327 634.547 767.663 636.08 769.033C641.298 773.695 645.6 780.823 649.695 786.507C662.092 803.715 674.44 824.146 688.498 839.84C701.249 854.075 725.366 876.608 741.733 886.074C773.194 904.269 819.227 874.879 830.985 878.958C841.87 892.095 803.165 915.81 793.678 920.143C747.53 941.223 687.105 903.961 667.72 861.035C663.896 852.566 651.062 830.848 640.749 831.706C638.981 833.205 637.123 834.562 637.107 837.272C636.987 857.769 649.385 875.289 658.668 892.57C662.827 900.312 666.522 906.101 671.876 912.67C693.749 939.409 719.369 964.115 756.041 965.105C766.619 966.311 789.773 957.492 796.307 968.01C802.284 977.532 798.053 990.482 794.829 1000.35C788.263 1020.44 780.961 1040.24 776.569 1060.98C770.772 1085.83 774.274 1111.93 771.79 1136.9C769.498 1159.92 765.308 1183.17 763.933 1206.42C763.35 1216.28 760.358 1226.98 760.036 1236.91C759.86 1242.32 759.196 1250.11 765.753 1250.85C785.678 1241.86 825.802 1145.9 830.729 1121.64C834.239 1104.35 830.578 1073.38 852.215 1067.91C884.989 1059.62 888.951 1117.61 893.081 1137.52C895.815 1150.09 899.034 1162.56 902.733 1174.89C906.942 1188.5 931.174 1242.53 941.89 1248.23L943.323 1247.5C946.043 1237.74 943.57 1225.19 943.311 1215.08C942.343 1177.35 934.654 1142.83 928.321 1105.86C923.717 1071.65 918.975 1036.1 916.337 1001.81C915.829 995.207 919.052 960.177 928.943 961.043C932.18 963.531 934.247 967.527 935.557 971.35C939.536 982.964 938.274 996.798 939.69 1008.92C940.905 1019.31 943.377 1029.75 945.616 1039.96C948.209 1051.79 951.738 1063.29 954.673 1075.03C958.749 1091.33 962.199 1107.82 966.746 1124C981.54 1176.65 992.43 1206.27 984.58 1262.53C983.25 1272.06 982.53 1283.12 978.17 1291.81C975.191 1297.73 964.767 1308.73 958.098 1310.42C952.345 1311.88 944.671 1308.6 939.925 1305.6C911.089 1287.35 866.142 1169.66 857.318 1133.08C843.864 1150.84 839.592 1173.11 832.493 1194.8C822.03 1226.04 804.792 1267 783.054 1291.53C765.717 1311.09 732.809 1330.5 717.845 1297.51C714.54 1290.22 710.614 1282.04 711.141 1273.98C713.167 1249.12 717.64 1224.27 722.144 1199.61C731.536 1148.18 742.153 1096.49 752.581 1045.26C756.213 1027.42 763.729 1007.5 768.817 989.73C744.244 997.14 721.139 996.9 697.167 985.733C647.581 962.635 627.424 908.582 609.2 860.808C601.625 840.951 599.143 803.457 609.485 784.205C615.402 773.192 619.875 770.366 630.984 767.055Z" fill="#F14641"/>
<path d="M836.681 681.364C841.619 681.065 846.568 680.975 851.513 681.095C876.566 681.633 898.63 695.252 915.449 713.048C931.018 729.418 939.196 751.455 938.076 774.019C937.245 790.997 921.331 825.525 908.397 838.057C903.143 843.147 891.048 846.677 888.06 838.417C881.648 820.693 902.129 801.167 905.66 783.323C909.056 770.819 910.922 755.271 903.121 743.589C884.259 715.339 850.379 716.548 824.673 731.818C784.876 761.151 781.381 806.666 826.027 834.51C831.728 838.065 845.719 842.415 848.489 847.616L847.511 849.62C814.303 871.674 762.082 830.175 756.647 796.36C752.401 769.935 758.615 738.043 773.663 715.678C791.047 689.841 808.223 686.471 836.681 681.364Z" fill="#F14641"/>
<path d="M1146.68 681.416C1213.09 676.785 1244.88 722.263 1244.9 785.098C1244.91 823.889 1196.78 867.278 1157.97 853.088C1154.43 851.791 1153.1 851.231 1151.52 847.841C1155.17 840.733 1166.74 840.134 1173.34 835.945C1212.55 811.066 1217.33 775.507 1187.76 741.421C1138.43 696.542 1068.27 730.556 1099.76 797.243C1104.4 804.949 1125.56 842.398 1105.28 843.471C1083.26 844.635 1063.16 789.044 1062.3 772.975C1059.82 726.482 1102.68 684.403 1146.68 681.416Z" fill="#F14641"/>
<path d="M994.48 574.29C1001.61 573.383 1008.83 573.442 1015.94 574.465C1037.42 577.595 1072.16 591.829 1085.67 610.205C1090.25 616.439 1098.34 629.878 1088.4 634.821C1071.59 634.889 1049.5 587.216 993.64 595.606L992.24 595.826C969.56 601.333 952.235 614.611 935.467 630.324C930.092 634.885 914.906 652.275 907.207 647.512C891.544 637.822 922.614 611.577 927.722 606.662C948.088 587.064 967.35 578.727 994.48 574.29Z" fill="#F14641"/>
<path d="M1080.46 865.19C1082.08 865.008 1083.72 864.969 1085.34 865.073C1098.96 865.883 1105.61 878.154 1092.48 886.681C1085.75 891.057 1078.48 899.827 1072.12 904.194C1051.1 918.623 1033.33 934.248 1024.23 958.827C1019.8 970.452 1018.44 981.741 1016.28 994.5C1014.36 998.65 1014.26 1000.33 1009.51 1000.51C1005.59 997.61 1005.45 993.421 1004.17 988.935C997.73 966.499 1012.39 926.592 1024.49 907.471C1038.75 884.956 1053.65 870.874 1080.46 865.19Z" fill="#F14641"/>
<path d="M909.618 865.109C956.305 861.602 976.46 903.931 991.38 942.152C997.04 956.633 1000.49 992.389 990.16 1005.1C979.46 1000.43 980.31 955.087 971.044 940.81C959.884 923.62 946.401 915.078 931.184 901.862C921.902 893.8 887.799 878.585 909.618 865.109Z" fill="#F14641"/>
<path d="M1135.05 521.18C1145.24 520.743 1155.13 523.489 1145.63 535.374C1139.43 543.127 1128.81 550.834 1121.54 558.085C1112.52 567.075 1104.34 577.263 1094.67 585.363C1080.73 587.992 1079.61 570.784 1083.54 564.098C1091.43 550.655 1121.34 525.958 1135.05 521.18Z" fill="#F14641"/>
<path d="M932.818 477.372C954.735 483.123 978.64 538.305 967.308 557.15L966.41 558.686C965.044 558.954 959.941 559.83 958.984 558.077C950.451 542.449 917.459 495.6 931.662 478.776L932.818 477.372Z" fill="#F14641"/>
<path d="M817.398 571.063C839.57 572.208 855.926 580.307 872.574 593.902C875.348 596.168 880.9 597.158 883.379 599.385C889.778 605.134 893.223 611.998 887.897 619.536C867.151 618.976 843.903 603.635 825.872 594.266C818.153 590.255 810.351 581.081 816.464 572.462L817.398 571.063Z" fill="#F14641"/>
<path d="M1001.78 462.655C1004.59 463.066 1008.41 463.566 1010.51 465.895C1020.58 477.057 1017.53 539.125 1009.23 547.877C1006.86 547.876 1002 548.31 1000.71 546.339C991.29 531.944 991.37 473.699 1001.78 462.655Z" fill="#F14641"/>
<path d="M1072.59 480.926C1091.47 483.471 1079.95 499.298 1077.06 508.995C1071.82 526.591 1065.85 544.275 1051.04 556.296C1030.41 554.902 1043.88 535.006 1047.99 524.635C1052.37 513.597 1055.63 502.218 1060.91 491.451C1064.45 484.232 1065.47 483.523 1072.59 480.926Z" fill="#F14641"/>
<path d="M864.72 514.881L865.658 514.92C879.892 515.403 920.501 551.461 924.905 566.015C925.541 568.117 922.08 570.756 921.064 571.681C903.514 573.723 889.209 557.083 876.56 546.806C867.609 539.533 854.639 525.856 864.72 514.881Z" fill="#F14641"/>
<path d="M1176.14 579.229C1184.54 578.202 1201.67 580.856 1196.52 589.432C1191.31 598.093 1146.91 617.534 1138.23 621.036C1119.37 627.178 1115.46 610.38 1124.15 606.56C1137.88 600.518 1163 585.052 1176.14 579.229Z" fill="#F14641"/>
</g>
<g clip-path="url(#clip1_1_383)">
<path d="M399.3 1335.82C436.725 1334.33 516.971 1329.33 538.134 1368.94C555.224 1400.92 524.763 1418.97 500.415 1430.65C527.143 1442.15 566.1 1458.72 548.621 1496.78C545.751 1503.03 542.425 1506.71 537.793 1511.57C533.621 1515.56 528.957 1519.01 523.911 1521.82C518.301 1524.89 507.905 1528.75 502.017 1529.96C483.583 1533.77 395.845 1535.69 382.006 1531.68C377.686 1526.73 390.409 1515.05 391.539 1510.11C401.571 1466.23 399.559 1412.46 393.777 1368.16C391.033 1347.16 360.352 1337 399.3 1335.82ZM460.334 1438.21C458.23 1438.17 456.125 1438.2 454.023 1438.32C441.091 1452.27 446.511 1473.91 446.729 1491.25C447.047 1516.44 460.199 1529.37 483.609 1513.67C510.295 1489.86 503.097 1438.94 460.334 1438.21ZM454.691 1348.32C443.671 1358.15 446.759 1374.12 445.779 1387.73C444.267 1408.72 450.485 1435.55 476.955 1418.44C502.151 1394.97 491.615 1348.24 454.691 1348.32Z" fill="#ED423F"/>
<path d="M1073.99 1335.48C1110.98 1335.36 1165.54 1332.28 1186.38 1370.29C1194.62 1385.33 1188.82 1405.65 1175.53 1415.78C1166.71 1422.51 1158.73 1426.07 1148.36 1430.63C1160.46 1436.65 1172.46 1439.79 1183.63 1448.19C1206.98 1465.75 1205.47 1488.11 1188.54 1509.31C1178.61 1519.79 1159.45 1528.94 1145.85 1530.53C1127.17 1532.71 1044.49 1537.08 1031.75 1531.56C1029.8 1524.86 1036.89 1522.24 1040.12 1514.41C1042.34 1509.05 1045.36 1503.06 1045.89 1496.58C1049.3 1454.39 1050.03 1409.78 1043.46 1367.88C1042.15 1359.5 1027.75 1345.06 1031.96 1337.89C1035.4 1335.81 1038.68 1336.09 1042.79 1335.86C1053.1 1335.53 1063 1335.52 1073.99 1335.48ZM1108.05 1437.65C1106.58 1437.61 1105.11 1437.61 1103.64 1437.64C1099.29 1440.5 1095.4 1443.29 1094.73 1448.92C1092.7 1465.96 1093.62 1483.82 1095.84 1500.81C1098.94 1524.48 1112.97 1524.16 1130.88 1514.51C1159.87 1489.9 1151.15 1439.16 1108.05 1437.65ZM1101.86 1348.28C1098.01 1351.78 1095.87 1354.19 1095.45 1359.56C1094.31 1373.93 1090.11 1407.98 1099.67 1419.09C1102.16 1422.03 1105.82 1423.75 1109.69 1423.77C1114.97 1423.83 1120.35 1421.17 1124.75 1418.52C1148.31 1395.02 1139.79 1349.09 1101.86 1348.28Z" fill="#ED423F"/>
<path d="M621.839 1391.99C661.313 1385.23 698.792 1411.76 705.58 1451.26C712.374 1490.77 685.91 1528.31 646.453 1535.15C606.939 1542 569.361 1515.46 562.561 1475.9C555.762 1436.34 582.313 1398.76 621.839 1391.99ZM654.6 1459.61C651.078 1443.08 641.532 1400.36 618.3 1403.49C614.033 1407.06 612.558 1408.96 610.928 1414.44C603.96 1437.86 617.057 1523.23 647.841 1523.92C648.639 1523.93 649.431 1523.94 650.228 1523.93C664.406 1508.41 658.589 1478.29 654.6 1459.61Z" fill="#ED423F"/>
<path d="M789.125 1391.05C829.091 1390.26 862.164 1421.97 863.095 1461.97C864.02 1501.97 832.449 1535.19 792.49 1536.25C752.339 1537.32 718.96 1505.54 718.029 1465.34C717.098 1425.15 748.969 1391.85 789.125 1391.05ZM791.646 1410.54C786.546 1404.67 782.47 1402.96 774.867 1403.33C759.856 1417.68 766.54 1451.2 770.68 1469.35C774.832 1487.55 783.21 1525.21 807.269 1523.87C826.697 1504.95 808.83 1430.32 791.646 1410.54Z" fill="#ED423F"/>
<path d="M919.672 1334.45C924.529 1334.23 924.095 1333.78 927.356 1336.05C935.3 1351.63 919.834 1439.61 933.45 1449.13C943.181 1450.93 962.355 1429.97 962.777 1420.52C963.066 1414.05 952.554 1404.68 954.532 1396.82C959.984 1394.1 1009.39 1394.72 1015.21 1397.65L1015.58 1399.25C1008.08 1410.67 975.191 1424.47 965.384 1440.21C965.205 1446.31 980.325 1450.44 984.575 1454.73C997.388 1468.54 1003.02 1489.26 1012.36 1505.7C1016.57 1513.11 1027.78 1522.94 1026.34 1530.47C1021.85 1534.74 1013.32 1533.63 1006.97 1533.58C995.26 1533.66 985.402 1533.75 973.774 1532.13C961.8 1517.92 959.227 1493.1 943.765 1482.87C941.377 1481.48 936.041 1479.83 933.618 1481.48C915.728 1493.67 937.347 1511.5 942.482 1524.09C943.656 1526.97 942.846 1528.2 941.782 1530.41C940.065 1531.68 937.365 1533.24 935.324 1533.2C924.315 1533.01 878.717 1535.86 871.432 1530.69C869.854 1523.1 884.158 1510.59 885.112 1501.3C886.46 1488.29 886.211 1475.08 886.234 1462.07C886.46 1436.16 885.997 1410.25 884.841 1384.36C877.307 1372.66 857.405 1367.94 877.526 1356.69C891.322 1348.99 905.24 1340.94 919.672 1334.45Z" fill="#ED423F"/>
<path d="M1263.34 1390.56C1272.35 1396.76 1269.12 1415.76 1268.85 1425.47C1267.93 1444.55 1267.33 1462.95 1268.31 1482.04C1269.28 1500.8 1290.98 1509.67 1301.18 1493.09C1310.72 1477.56 1310.18 1451.54 1306.57 1434.06C1302.14 1429.23 1296.76 1424.92 1296.87 1418.49C1301.33 1410.19 1346.73 1386.13 1349.14 1395.27C1356.97 1424.95 1341.25 1474.08 1357.54 1501.25L1358.22 1502.35C1362.63 1507.79 1363.97 1509.67 1367.43 1515.8C1359.6 1522.46 1326.04 1539.16 1316.68 1534.54C1310.38 1527.34 1310.55 1516.18 1309.78 1506.68C1290.22 1526.72 1266.32 1549.77 1236.96 1528.64C1218.86 1515.61 1226.21 1466.45 1225 1445.6L1224.89 1443.78C1214.63 1426.54 1191.59 1427.31 1228.14 1408.01C1239.59 1401.97 1251.12 1395.11 1263.34 1390.56Z" fill="#ED423F"/>
<path d="M1596.38 1389.68C1631.9 1388.83 1624.43 1422.67 1602.09 1438.95C1590.87 1433.74 1569.53 1414.26 1561.58 1438.14C1554.81 1458.48 1558.1 1487.56 1562.33 1508.17C1563.52 1514 1577.86 1522.46 1573.02 1531.22C1565.36 1535.04 1528.84 1533.57 1518.55 1533.56C1512.42 1533.74 1505.71 1535.32 1501.98 1530.07C1501.45 1522.23 1510.69 1514.63 1512.58 1509.54C1517.9 1495.23 1517.19 1456.55 1514.44 1441.45C1513.65 1437.1 1501.86 1432.53 1499.96 1425.79C1500.4 1422.62 1500.21 1420.75 1502.94 1418.34C1512.21 1410.49 1523.77 1404.82 1534.45 1399.09C1559 1385.91 1560.39 1393.91 1560.34 1416.37C1569.97 1399.15 1576.4 1393.07 1596.38 1389.68Z" fill="#ED423F"/>
<path d="M1468.27 1389.69C1503.44 1388.29 1497.26 1422.99 1474.02 1439.14C1469.08 1436.8 1465.25 1433.4 1460.71 1430.79C1426.68 1411.24 1429.24 1463.16 1430.39 1482.08C1431.09 1493.56 1431.75 1499.88 1435.82 1510.35C1438.75 1517.91 1449.39 1524.49 1444.79 1531.38C1436.82 1534.92 1399.7 1533.51 1388.75 1533.52C1383.31 1533.7 1378.4 1534.64 1374.41 1530.98C1372.69 1522.35 1384.85 1512.86 1386.4 1503.08C1388.74 1488.23 1390.49 1453.27 1385.54 1439.41C1384.45 1436.36 1375 1432.56 1371.64 1426.38C1371.52 1424.61 1371.05 1421.97 1372.63 1420.63C1381.43 1413.18 1418.95 1388.16 1428.99 1394.39C1433.29 1400.09 1432.64 1407.39 1433.02 1414.76C1442.35 1398.56 1449.72 1392.98 1468.27 1389.69Z" fill="#ED423F"/>
</g>
<defs>
<clipPath id="clip0_1_383">
<rect width="796" height="856" fill="white" transform="translate(602 462)"/>
</clipPath>
<clipPath id="clip1_1_383">
<rect width="1242" height="204" fill="white" transform="translate(379 1334)"/>
</clipPath>
</defs>
</svg>
