<svg width="2427" height="528" viewBox="0 0 2427 528" fill="none" xmlns="http://www.w3.org/2000/svg">
<rect width="2427" height="528" fill="white"/>
<g clip-path="url(#clip0_1_299)">
<path d="M420.545 206.541C436.467 205.94 437.678 232.665 434.588 243.414C432.929 249.186 430.13 253.931 428.247 259.423C422.185 277.062 414.367 296.517 397.244 306.122C382.924 314.079 373.606 314.397 358.011 310.172C359.903 318.028 364.572 327.28 366.292 335.911C368.474 346.879 370.825 358.07 372.704 369.131C374.788 381.397 378.457 394.5 380.242 406.682C382.209 421.023 390.514 446.654 380.256 459.201C367.072 475.318 343.215 445.322 338.943 434.224C333.017 418.813 328.69 406.294 322.428 391.332C321.035 388.005 318.544 377.692 316.338 376.028C314.478 376.897 313.45 385.519 312.515 388.509C309.071 399.542 305.734 411.304 301.374 421.977C298.14 429.888 293.542 437.991 290.261 446.028C287.597 452.678 282.592 460.444 275.456 462.874C265.543 466.692 258.926 454.832 257 446.332C250.902 419.463 259.655 390.075 266.983 364.262C268.647 358.402 269.684 352.85 271.1 347.196C273.825 336.014 277.563 324.935 279.33 313.547C280.064 308.804 278.143 299.107 284.349 297.425C293.018 301.243 287.728 341.547 286.658 349.631C285.784 356.575 284.732 363.836 283.363 370.692C279.461 390.215 271.932 411.196 278.11 430.85C280.629 427.804 282.265 424.079 284.307 420.696C293.046 406.196 299.837 391.168 302.169 374.243C302.991 367.575 301.977 356.299 307.463 351.196C318.437 340.991 327.003 349.836 328.578 361.752C329.961 372.262 334.448 384.435 337.546 394.238C339.822 401.458 352.094 429.953 360.114 429.514C361.74 428.079 361.689 426.836 361.511 424.654C360.156 406.902 355.319 388.916 356.31 371.061C357.515 349.336 351.594 330.121 344.771 309.866C344.406 308.774 344.411 305.625 344.822 304.494C347.458 296.832 360.216 300.123 367.04 299.599C386.429 298.109 394 288.308 403.969 273.025C408.777 265.657 417.031 257.188 419.138 247.705C419.783 244.81 421.681 239.764 420.078 236.986C414.203 234.063 407.095 250.932 404.02 254.393C396.458 262.907 386.261 270.327 376.475 276.117C373.713 277.749 368.881 278.378 365.74 278.893C354.057 281.036 344.42 277.948 335.153 270.703C333.181 269.161 324.484 261.637 329.844 259.062C334.036 257.049 343.734 262.835 349.187 263.959C365.876 267.402 376.559 260.915 387.817 249.229C395.622 241.695 400.076 236.613 406.123 227.387C410.184 221.194 414.666 210.47 420.545 206.541Z" fill="#F14641"/>
<path d="M77.5453 206.549C78.4669 206.676 79.2105 206.833 79.9269 207.473C82.3655 209.652 84.3759 212.983 86.2897 215.639C92.0832 223.68 97.8539 233.227 104.424 240.561C110.383 247.213 121.653 257.742 129.302 262.165C144.005 270.668 165.518 256.934 171.013 258.84C176.1 264.979 158.012 276.061 153.578 278.086C132.012 287.936 103.773 270.524 94.7134 250.465C92.9263 246.507 86.9285 236.359 82.1089 236.76C81.2826 237.46 80.4143 238.094 80.4068 239.361C80.3508 248.939 86.1448 257.126 90.4831 265.201C92.4267 268.819 94.1535 271.524 96.6557 274.593C106.878 287.088 118.851 298.633 135.989 299.096C140.933 299.659 151.753 295.538 154.807 300.453C157.6 304.903 155.623 310.954 154.116 315.565C151.048 324.953 147.635 334.206 145.583 343.897C142.873 355.509 144.51 367.706 143.349 379.374C142.278 390.131 140.32 400.995 139.677 411.86C139.405 416.467 138.007 421.467 137.856 426.108C137.774 428.636 137.463 432.276 140.528 432.622C149.84 428.421 168.591 383.579 170.893 372.243C172.534 364.164 170.823 349.692 180.935 347.136C196.251 343.262 198.103 370.36 200.033 379.664C201.311 385.537 202.815 391.365 204.544 397.126C206.511 403.486 217.835 428.734 222.843 431.397L223.513 431.056C224.784 426.495 223.628 420.631 223.507 415.907C223.055 398.276 219.461 382.145 216.502 364.869C214.35 348.883 212.134 332.271 210.901 316.248C210.664 313.162 212.17 296.793 216.793 297.198C218.305 298.36 219.271 300.228 219.883 302.014C221.743 307.441 221.153 313.906 221.815 319.57C222.383 324.425 223.538 329.304 224.584 334.075C225.796 339.603 227.445 344.977 228.817 350.463C230.722 358.079 232.334 365.785 234.459 373.346C241.373 397.949 246.462 411.79 242.794 438.079C242.172 442.533 241.836 447.701 239.798 451.762C238.406 454.528 233.534 459.668 230.418 460.458C227.729 461.14 224.143 459.607 221.925 458.206C208.449 449.678 187.443 394.682 183.32 377.589C177.032 385.888 175.035 396.294 171.718 406.43C166.828 421.028 158.772 440.168 148.613 451.631C140.511 460.771 125.132 469.841 118.139 454.425C116.594 451.019 114.759 447.196 115.006 443.43C115.952 431.813 118.043 420.201 120.148 408.678C124.537 384.645 129.499 360.491 134.372 336.551C136.069 328.215 139.582 318.907 141.96 310.603C130.476 314.065 119.678 313.953 108.475 308.735C85.3017 297.942 75.8816 272.683 67.3649 250.359C63.8248 241.08 62.6649 223.559 67.4981 214.563C70.2633 209.417 72.3537 208.096 77.5453 206.549Z" fill="#F14641"/>
<path d="M173.675 166.507C175.983 166.367 178.296 166.325 180.607 166.381C192.315 166.632 202.626 172.996 210.486 181.312C217.762 188.962 221.584 199.259 221.061 209.803C220.672 217.737 213.235 233.871 207.191 239.728C204.735 242.106 199.083 243.756 197.686 239.896C194.69 231.614 204.261 222.489 205.911 214.151C207.499 208.308 208.371 201.043 204.725 195.584C195.91 182.383 180.077 182.948 168.063 190.083C149.465 203.79 147.831 225.059 168.696 238.07C171.36 239.731 177.899 241.764 179.193 244.194L178.736 245.131C163.217 255.436 138.812 236.044 136.272 220.243C134.288 207.895 137.192 192.992 144.224 182.541C152.349 170.468 160.376 168.893 173.675 166.507Z" fill="#F14641"/>
<path d="M318.549 166.531C349.585 164.367 364.441 185.618 364.451 214.98C364.455 233.107 341.962 253.382 323.825 246.751C322.171 246.145 321.549 245.884 320.811 244.3C322.516 240.978 327.923 240.698 331.008 238.741C349.332 227.115 351.566 210.499 337.747 194.571C314.693 173.599 281.905 189.493 296.621 220.656C298.79 224.257 308.679 241.756 299.201 242.257C288.91 242.801 279.517 216.824 279.115 209.315C277.956 187.59 297.986 167.927 318.549 166.531Z" fill="#F14641"/>
<path d="M247.42 116.472C250.752 116.048 254.127 116.076 257.449 116.554C267.488 118.016 283.723 124.668 290.037 133.255C292.177 136.168 295.958 142.448 291.313 144.757C283.457 144.789 273.133 122.512 247.028 126.433L246.373 126.536C235.774 129.109 227.678 135.314 219.841 142.656C217.329 144.787 210.232 152.914 206.634 150.688C199.314 146.16 213.835 133.896 216.222 131.599C225.74 122.441 234.741 118.545 247.42 116.472Z" fill="#F14641"/>
<path d="M287.602 252.407C288.359 252.322 289.125 252.303 289.882 252.352C296.248 252.73 299.355 258.465 293.219 262.449C290.074 264.494 286.676 268.592 283.704 270.633C273.881 277.375 265.576 284.677 261.323 296.162C259.253 301.594 258.618 306.87 257.608 312.832C256.711 314.771 256.664 315.556 254.444 315.64C252.612 314.285 252.547 312.328 251.949 310.231C248.939 299.747 255.79 281.099 261.445 272.164C268.109 261.643 275.073 255.063 287.602 252.407Z" fill="#F14641"/>
<path d="M207.761 252.369C229.58 250.73 238.999 270.51 245.972 288.37C248.617 295.137 250.229 311.845 245.401 317.785C240.401 315.603 240.798 294.414 236.468 287.743C231.252 279.71 224.951 275.719 217.84 269.543C213.502 265.776 197.564 258.666 207.761 252.369Z" fill="#F14641"/>
<path d="M313.114 91.6542C317.876 91.45 322.498 92.7332 318.058 98.2869C315.161 101.91 310.198 105.511 306.8 108.9C302.585 113.1 298.762 117.861 294.243 121.646C287.728 122.875 287.205 114.834 289.041 111.709C292.728 105.428 306.707 93.8869 313.114 91.6542Z" fill="#F14641"/>
<path d="M218.603 71.1832C228.846 73.8705 240.018 99.6565 234.722 108.463L234.302 109.18C233.664 109.306 231.279 109.715 230.832 108.896C226.844 101.593 211.426 79.7009 218.063 71.8392L218.603 71.1832Z" fill="#F14641"/>
<path d="M164.663 114.964C175.025 115.499 182.669 119.284 190.449 125.636C191.745 126.695 194.34 127.158 195.499 128.199C198.489 130.885 200.099 134.093 197.61 137.615C187.915 137.353 177.05 130.185 168.623 125.807C165.016 123.932 161.37 119.645 164.227 115.618L164.663 114.964Z" fill="#F14641"/>
<path d="M250.832 64.3061C252.145 64.4981 253.93 64.7318 254.912 65.8201C259.618 71.036 258.192 100.04 254.313 104.129C253.206 104.129 250.934 104.332 250.332 103.411C245.929 96.6841 245.967 69.4668 250.832 64.3061Z" fill="#F14641"/>
<path d="M283.924 72.8439C292.747 74.0332 287.363 81.429 286.013 85.9603C283.564 94.1827 280.774 102.446 273.853 108.064C264.212 107.412 270.507 98.115 272.427 93.2687C274.474 88.1108 275.998 82.7935 278.465 77.7622C280.12 74.3888 280.596 74.0575 283.924 72.8439Z" fill="#F14641"/>
<path d="M186.778 88.7108L187.217 88.729C193.869 88.9547 212.847 105.804 214.905 112.605C215.202 113.587 213.585 114.821 213.11 115.253C204.908 116.207 198.223 108.431 192.312 103.629C188.129 100.23 182.067 93.8393 186.778 88.7108Z" fill="#F14641"/>
<path d="M332.316 118.78C336.242 118.3 344.248 119.54 341.841 123.548C339.406 127.595 318.656 136.679 314.6 138.316C305.786 141.186 303.958 133.336 308.02 131.551C314.436 128.728 326.176 121.501 332.316 118.78Z" fill="#F14641"/>
</g>
<path d="M530.452 166.671C586.588 164.481 706.956 157.138 738.702 215.38C764.336 262.408 718.645 288.952 682.123 306.136C722.215 323.047 780.65 347.415 754.431 403.388C750.126 412.57 745.137 417.993 738.189 425.126C731.932 431.002 724.936 436.073 717.367 440.208C708.952 444.721 693.358 450.391 684.526 452.182C656.875 457.784 525.265 460.597 504.508 454.702C498.028 447.428 517.115 430.255 518.809 422.986C533.857 358.449 530.84 279.39 522.167 214.242C518.05 183.346 472.028 168.408 530.452 166.671ZM622 317.253C618.844 317.186 615.687 317.236 612.535 317.407C593.137 337.933 601.267 369.746 601.594 395.25C602.071 432.298 621.799 451.314 656.914 428.224C696.943 393.207 686.146 318.328 622 317.253ZM613.537 185.065C597.007 199.52 601.639 222.994 600.169 243.022C597.901 273.885 607.228 313.331 646.932 288.178C684.727 253.656 668.923 184.935 613.537 185.065Z" fill="#ED423F"/>
<path d="M1542.48 166.183C1597.96 166.006 1679.81 161.472 1711.07 217.374C1723.44 239.489 1714.73 269.369 1694.79 284.272C1681.56 294.16 1669.6 299.395 1654.04 306.11C1672.2 314.963 1690.19 319.577 1706.94 331.927C1741.97 357.755 1739.7 390.64 1714.31 421.812C1699.41 437.217 1670.68 450.683 1650.28 453.018C1622.26 456.221 1498.24 462.654 1479.13 454.528C1476.2 444.672 1486.84 440.83 1491.69 429.304C1495.01 421.426 1499.53 412.622 1500.34 403.093C1505.46 341.041 1506.54 275.447 1496.7 213.828C1494.73 201.505 1473.12 180.264 1479.44 169.718C1484.6 166.665 1489.52 167.08 1495.69 166.738C1511.15 166.25 1526 166.235 1542.48 166.183ZM1593.58 316.43C1591.37 316.368 1589.17 316.361 1586.97 316.417C1580.44 320.618 1574.6 324.72 1573.59 332.998C1570.56 358.055 1571.93 384.322 1575.26 409.305C1579.92 444.118 1600.96 443.648 1627.82 429.463C1671.31 393.266 1658.22 318.652 1593.58 316.43ZM1584.3 184.998C1578.51 190.153 1575.31 193.688 1574.68 201.584C1572.97 222.717 1566.66 272.787 1581 289.129C1584.75 293.462 1590.24 295.98 1596.03 296.016C1603.96 296.103 1612.03 292.194 1618.62 288.29C1653.97 253.741 1641.18 186.199 1584.3 184.998Z" fill="#ED423F"/>
<path d="M864.258 249.278C923.469 239.342 979.688 278.353 989.87 336.445C1000.06 394.538 960.365 449.747 901.18 459.804C841.908 469.879 785.542 430.853 775.342 372.675C765.143 314.495 804.969 259.229 864.258 249.278ZM913.4 348.717C908.118 324.408 893.799 261.593 858.951 266.194C852.55 271.443 850.338 274.24 847.892 282.296C837.441 316.732 857.086 442.28 903.261 443.294C904.458 443.314 905.646 443.321 906.843 443.309C928.109 420.484 919.384 376.193 913.4 348.717Z" fill="#ED423F"/>
<path d="M1115.19 247.901C1175.14 246.735 1224.75 293.371 1226.14 352.196C1227.53 411.021 1180.17 459.866 1120.24 461.432C1060.01 463.007 1009.94 416.262 1008.54 357.154C1007.15 298.043 1054.95 249.069 1115.19 247.901ZM1118.97 276.564C1111.32 267.926 1105.2 265.409 1093.8 265.953C1071.28 287.057 1081.31 336.352 1087.52 363.048C1093.75 389.815 1106.31 445.193 1142.4 443.22C1171.54 415.392 1144.75 305.654 1118.97 276.564Z" fill="#ED423F"/>
<path d="M1311.01 164.669C1318.29 164.336 1317.64 163.682 1322.53 167.021C1334.45 189.932 1311.25 319.305 1331.68 333.302C1346.27 335.951 1375.03 305.127 1375.67 291.233C1376.1 281.728 1360.33 267.944 1363.3 256.382C1371.48 252.379 1445.58 253.291 1454.31 257.61L1454.87 259.962C1443.62 276.755 1394.29 297.042 1379.58 320.188C1379.31 329.162 1401.99 335.238 1408.36 341.55C1427.58 361.847 1436.03 392.326 1450.05 416.506C1456.35 427.393 1473.18 441.851 1471.02 452.93C1464.27 459.209 1451.49 457.567 1441.96 457.494C1424.39 457.617 1409.6 457.752 1392.16 455.362C1374.2 434.474 1370.34 397.968 1347.15 382.932C1343.57 380.88 1335.56 378.454 1331.93 380.878C1305.09 398.809 1337.52 425.032 1345.22 443.539C1346.98 447.778 1345.77 449.585 1344.17 452.836C1341.6 454.699 1337.55 456.996 1334.49 456.943C1317.97 456.66 1249.58 460.849 1238.65 453.256C1236.28 442.084 1257.74 423.687 1259.17 410.035C1261.19 390.904 1260.82 371.468 1260.85 352.332C1261.19 314.229 1260.5 276.125 1258.76 238.059C1247.46 220.856 1217.61 213.911 1247.79 197.374C1268.48 186.039 1289.36 174.202 1311.01 164.669Z" fill="#ED423F"/>
<path d="M1826.52 247.17C1840.02 256.3 1835.17 284.233 1834.78 298.509C1833.4 326.574 1832.49 353.633 1833.97 381.699C1835.42 409.29 1867.97 422.332 1883.27 397.958C1897.58 375.121 1896.78 336.849 1891.36 311.15C1884.7 304.05 1876.65 297.704 1876.81 288.245C1883.5 276.045 1951.6 240.655 1955.22 254.11C1966.96 297.755 1943.37 369.993 1967.81 409.95L1968.83 411.58C1975.45 419.574 1977.45 422.338 1982.65 431.353C1970.91 441.148 1920.57 465.708 1906.52 458.918C1897.07 448.322 1897.33 431.909 1896.17 417.946C1866.83 447.412 1830.98 481.313 1786.94 450.234C1759.79 431.068 1770.82 358.782 1769.01 328.111L1768.84 325.447C1753.45 300.086 1718.88 301.226 1773.71 272.845C1790.89 263.952 1808.17 253.868 1826.52 247.17Z" fill="#ED423F"/>
<path d="M2326.08 245.884C2379.36 244.627 2368.15 294.39 2334.64 318.334C2317.81 310.671 2285.79 282.022 2273.86 317.154C2263.72 347.053 2268.65 389.822 2274.99 420.131C2276.79 428.709 2298.3 441.142 2291.03 454.025C2279.55 459.654 2224.76 457.488 2209.33 457.47C2200.14 457.738 2190.07 460.058 2184.47 452.342C2183.68 440.809 2197.53 429.634 2200.37 422.144C2208.35 401.106 2207.29 344.215 2203.16 322.017C2201.97 315.613 2184.29 308.898 2181.44 298.979C2182.1 294.328 2181.82 291.575 2185.91 288.028C2199.82 276.49 2217.16 268.15 2233.17 259.72C2270.01 240.34 2272.09 252.099 2272.01 285.137C2286.46 259.815 2296.1 250.868 2326.08 245.884Z" fill="#ED423F"/>
<path d="M2133.9 245.896C2186.66 243.832 2177.39 294.864 2142.53 318.622C2135.11 315.172 2129.38 310.176 2122.57 306.342C2071.51 277.585 2075.36 353.948 2077.08 381.769C2078.13 398.642 2079.12 407.945 2085.23 423.342C2089.63 434.456 2105.59 444.136 2098.68 454.269C2086.73 459.475 2031.05 457.402 2014.62 457.417C2006.47 457.67 1999.09 459.062 1993.11 453.684C1990.54 440.98 2008.78 427.028 2011.1 412.649C2014.61 390.811 2017.24 339.39 2009.8 319.008C2008.17 314.533 1994 308.94 1988.96 299.848C1988.77 297.252 1988.08 293.369 1990.45 291.402C2003.65 280.444 2059.92 243.64 2074.98 252.808C2081.44 261.193 2080.46 271.924 2081.04 282.764C2095.03 258.935 2106.08 250.739 2133.9 245.896Z" fill="#ED423F"/>
<defs>
<clipPath id="clip0_1_299">
<rect width="372" height="400" fill="white" transform="translate(64 64)"/>
</clipPath>
</defs>
</svg>
