<svg width="1242" height="204" viewBox="0 0 1242 204" fill="none" xmlns="http://www.w3.org/2000/svg">
<g clip-path="url(#clip0_1_453)">
<path fill-rule="evenodd" clip-rule="evenodd" d="M20.3004 1.81639C57.7246 0.326844 137.971 -4.66617 159.134 34.9385C176.224 66.9174 145.763 84.9668 121.415 96.6523C148.143 108.151 187.1 124.722 169.621 162.783C166.751 169.027 163.425 172.715 158.793 177.565C154.621 181.561 149.957 185.009 144.911 187.821C139.301 190.89 128.905 194.746 123.017 195.964C104.583 199.773 16.8452 201.686 3.00552 197.678C-1.31417 192.731 11.4085 181.054 12.5387 176.11C22.5705 132.225 20.559 78.4651 14.777 34.164C12.0329 13.1554 -18.6484 2.99756 20.3004 1.81639ZM81.3336 104.212C79.2296 104.166 77.1249 104.2 75.0231 104.316C62.0913 118.274 67.5111 139.907 67.7291 157.25C68.0472 182.442 81.1993 195.373 104.609 179.672C131.295 155.861 124.097 104.943 81.3336 104.212ZM75.6911 14.3242C64.6713 24.1538 67.759 40.1156 66.779 53.7344C65.267 74.7211 71.4854 101.545 97.9547 84.4414C123.151 60.9662 112.615 14.2362 75.6911 14.3242Z" fill="black"/>
<path fill-rule="evenodd" clip-rule="evenodd" d="M694.988 1.48424C731.976 1.36387 786.541 -1.71944 807.38 36.2938C815.625 51.3321 809.82 71.6499 796.527 81.784C787.71 88.5084 779.73 92.0682 769.357 96.6346C781.465 102.655 793.463 105.792 804.628 114.19C827.981 131.753 826.466 154.115 809.542 175.311C799.608 185.787 780.453 194.945 766.853 196.532C748.172 198.71 665.495 203.085 652.751 197.559C650.797 190.857 657.891 188.244 661.123 180.406C663.337 175.049 666.356 169.064 666.893 162.584C670.305 120.389 671.027 75.7848 664.465 33.8837C663.152 25.5038 648.75 11.0598 652.959 3.88853C656.399 1.81277 659.678 2.0948 663.795 1.86217C674.098 1.53001 684.003 1.52011 694.988 1.48424ZM729.051 103.652C727.582 103.61 726.113 103.606 724.644 103.644C720.291 106.501 716.399 109.29 715.728 114.919C713.705 131.958 714.618 149.819 716.839 166.807C719.944 190.48 733.971 190.16 751.878 180.515C780.875 155.901 772.15 105.163 729.051 103.652ZM722.864 14.2782C719.008 17.7833 716.873 20.1884 716.451 25.5575C715.312 39.9283 711.109 73.9753 720.667 85.0878C723.165 88.0342 726.824 89.7459 730.686 89.7704C735.971 89.83 741.355 87.1718 745.749 84.5174C769.311 61.0244 760.788 15.095 722.864 14.2782Z" fill="black"/>
<path fill-rule="evenodd" clip-rule="evenodd" d="M242.839 57.9892C282.313 51.2325 319.792 77.7603 326.58 117.263C333.374 156.766 306.91 194.309 267.453 201.147C227.939 207.999 190.361 181.46 183.561 141.899C176.762 102.337 203.313 64.7558 242.839 57.9892ZM275.6 125.607C272.078 109.077 262.532 66.3642 239.3 69.4931C235.033 73.0623 233.558 74.9637 231.928 80.4414C224.96 103.858 238.057 189.231 268.841 189.92C269.639 189.934 270.431 189.939 271.228 189.931C285.406 174.41 279.589 144.291 275.6 125.607Z" fill="black"/>
<path fill-rule="evenodd" clip-rule="evenodd" d="M410.125 57.052C450.091 56.2594 483.164 87.9723 484.095 127.973C485.02 167.974 453.449 201.189 413.49 202.254C373.339 203.325 339.96 171.538 339.029 131.345C338.098 91.1497 369.969 57.8465 410.125 57.052ZM412.646 76.5432C407.546 70.6696 403.47 68.958 395.867 69.3283C380.856 83.6787 387.54 117.199 391.68 135.353C395.832 153.554 404.21 191.212 428.269 189.87C447.697 170.948 429.83 96.3245 412.646 76.5432Z" fill="black"/>
<path d="M540.672 0.454763C545.529 0.228495 545.095 -0.215952 548.356 2.05425C556.3 17.6337 540.834 105.607 554.45 115.125C564.181 116.927 583.355 95.9664 583.777 86.5187C584.066 80.0547 573.554 70.6817 575.532 62.8196C580.984 60.0974 630.386 60.7178 636.208 63.6547L636.578 65.2541C629.079 76.6734 596.191 90.4688 586.384 106.208C586.205 112.31 601.325 116.442 605.575 120.734C618.388 134.536 624.02 155.262 633.363 171.704C637.567 179.107 648.784 188.939 647.345 196.472C642.846 200.742 634.323 199.625 627.975 199.576C616.26 199.66 606.402 199.752 594.774 198.126C582.8 183.922 580.227 159.098 564.765 148.874C562.377 147.478 557.041 145.829 554.618 147.477C536.728 159.67 558.347 177.502 563.482 190.086C564.656 192.969 563.846 194.198 562.782 196.408C561.065 197.675 558.365 199.237 556.324 199.201C545.315 199.009 499.717 201.857 492.432 196.694C490.854 189.097 505.158 176.587 506.112 167.304C507.46 154.295 507.211 141.078 507.234 128.066C507.46 102.156 506.997 76.2452 505.841 50.3598C498.307 38.6622 478.405 33.9395 498.526 22.6944C512.322 14.9868 526.24 6.93725 540.672 0.454763Z" fill="black"/>
<path d="M884.345 56.5558C893.347 62.764 890.115 81.7584 889.855 91.4659C888.93 110.551 888.328 128.951 889.311 148.035C890.277 166.797 911.983 175.666 922.176 159.092C931.723 143.562 931.185 117.537 927.571 100.062C923.136 95.2337 917.765 90.919 917.875 84.4869C922.333 76.1908 967.733 52.1254 970.144 61.2745C977.973 90.9532 962.246 140.075 978.54 167.246L979.222 168.355C983.634 173.79 984.969 175.67 988.433 181.8C980.604 188.461 947.045 205.161 937.678 200.544C931.381 193.339 931.555 182.178 930.78 172.683C911.219 192.72 887.322 215.773 857.961 194.639C839.857 181.606 847.212 132.452 846.004 111.596L845.894 109.784C835.631 92.5388 812.589 93.3137 849.138 74.0149C860.592 67.967 872.116 61.1101 884.345 56.5558Z" fill="black"/>
<path d="M1217.38 55.6809C1252.9 54.8261 1245.43 88.6651 1223.09 104.947C1211.87 99.736 1190.53 80.2549 1182.58 104.144C1175.81 124.476 1179.1 153.559 1183.33 174.169C1184.52 180.002 1198.86 188.457 1194.02 197.217C1186.36 201.045 1149.84 199.572 1139.55 199.559C1133.42 199.742 1126.71 201.319 1122.98 196.072C1122.45 188.23 1131.69 180.631 1133.58 175.538C1138.9 161.232 1138.19 122.546 1135.44 107.452C1134.65 103.097 1122.86 98.5306 1120.96 91.7859C1121.4 88.6228 1121.21 86.7513 1123.94 84.3388C1133.21 76.4935 1144.77 70.8217 1155.45 65.0898C1180 51.9113 1181.39 59.907 1181.34 82.3729C1190.97 65.154 1197.4 59.0703 1217.38 55.6809Z" fill="black"/>
<path d="M1089.27 55.689C1124.44 54.2856 1118.26 88.9874 1095.02 105.143C1090.08 102.797 1086.25 99.3997 1081.71 96.7927C1047.68 77.2377 1050.24 129.165 1051.39 148.083C1052.09 159.556 1052.75 165.883 1056.82 176.353C1059.75 183.91 1070.39 190.492 1065.79 197.383C1057.82 200.923 1020.7 199.513 1009.75 199.523C1004.31 199.695 999.396 200.642 995.406 196.985C993.695 188.347 1005.85 178.859 1007.4 169.082C1009.74 154.231 1011.49 119.265 1006.54 105.405C1005.45 102.363 996.002 98.5589 992.642 92.3768C992.515 90.6112 992.052 87.9706 993.631 86.6332C1002.43 79.182 1039.95 54.1554 1049.99 60.3897C1054.29 66.0909 1053.64 73.3882 1054.02 80.7595C1063.35 64.5556 1070.72 58.9823 1089.27 55.689Z" fill="black"/>
</g>
<defs>
<clipPath id="clip0_1_453">
<rect width="1242" height="204" fill="white"/>
</clipPath>
</defs>
</svg>
