<svg width="1000" height="1000" viewBox="0 0 1000 1000" fill="none" xmlns="http://www.w3.org/2000/svg">
<path d="M900 0C955.228 1.28853e-05 1000 44.7715 1000 100V900C1000 955.228 955.228 1000 900 1000H100C44.7715 1000 8.05431e-07 955.228 0 900V100C1.28869e-05 44.7715 44.7715 8.05333e-07 100 0H900ZM507.679 540.1C498.132 539.868 488.577 540.042 479.043 540.62C424.1 550.498 390.938 557.015 357.375 606.987C328.322 650.244 316.325 711.927 324.522 763.036C335.016 828.438 435.838 908.702 499.952 866.047L501.84 862.171C496.491 852.112 469.479 843.698 458.473 836.822C372.276 782.969 379.024 694.938 455.859 638.204C505.489 608.67 570.901 606.332 607.317 660.971C622.378 683.565 618.775 713.636 612.219 737.82C605.402 772.333 565.86 810.099 578.239 844.379C584.008 860.355 607.359 853.527 617.503 843.683C642.474 819.444 673.199 752.664 674.804 719.826C676.966 676.185 661.177 633.562 631.118 601.9C598.646 567.481 556.048 541.14 507.679 540.1ZM522.106 371.405C506.294 369.128 490.237 368.996 474.38 371.016C414.044 380.895 371.206 399.457 325.913 443.093C314.553 454.036 245.455 512.471 280.288 534.046C297.41 544.651 331.184 505.932 343.138 495.776C380.429 460.791 418.959 431.227 469.398 418.966L472.512 418.477C596.742 399.796 645.869 505.94 683.254 505.789C705.36 494.783 687.368 464.862 677.183 450.981C647.137 410.067 569.877 378.374 522.106 371.405ZM923.708 404.729C935.161 385.635 897.065 379.726 878.384 382.013C849.161 394.978 793.296 429.413 762.761 442.865C743.435 451.371 752.13 488.772 794.074 475.097C813.379 467.299 912.121 424.013 923.708 404.729ZM78.4795 366.945C64.8844 386.136 82.2366 406.563 99.4033 415.493C139.503 436.353 191.206 470.51 237.344 471.757C249.188 454.973 241.527 439.691 227.296 426.891C221.783 421.932 209.435 419.728 203.266 414.683C166.241 384.413 129.866 366.38 80.5566 363.831L78.4795 366.945ZM810.531 284.369C831.659 257.907 809.664 251.793 787.002 252.766C756.512 263.404 689.994 318.392 672.446 348.323C663.706 363.21 666.196 401.523 697.198 395.67C718.704 377.635 736.896 354.952 756.956 334.936C773.124 318.791 796.743 301.631 810.531 284.369ZM185.799 238.74C163.379 263.176 192.224 293.629 212.131 309.822C240.262 332.704 272.075 369.753 311.105 365.207C313.365 363.148 321.062 357.272 319.648 352.592C309.854 320.187 219.542 239.903 187.886 238.827L185.799 238.74ZM334.676 158.353C303.089 195.811 376.461 300.121 395.438 334.917C397.567 338.82 408.915 336.87 411.953 336.273L413.95 332.854C439.152 290.895 385.989 168.031 337.246 155.227L334.676 158.353ZM648.094 163.139C632.259 168.921 629.991 170.5 622.118 186.573C610.376 210.546 603.125 235.882 593.384 260.458C584.243 283.549 554.287 327.848 600.167 330.952C633.104 304.187 646.382 264.813 658.035 225.636C664.462 204.045 690.082 168.805 648.094 163.139ZM490.615 122.458C467.464 147.048 467.286 276.731 488.235 308.782C491.104 313.171 501.913 312.205 507.184 312.207C525.642 292.72 532.426 154.524 510.03 129.672C505.36 124.486 496.864 123.373 490.615 122.458Z" fill="#F14641"/>
</svg>
